<svg id="visual" viewBox="0 0 900 600" width="900" height="600" xmlns="http://www.w3.org/2000/svg" xmlns:xlink="http://www.w3.org/1999/xlink" version="1.1"><rect x="0" y="0" width="900" height="600" fill="#001220"></rect><defs><linearGradient id="grad1_0" x1="33.3%" y1="0%" x2="100%" y2="100%"><stop offset="20%" stop-color="#001220" stop-opacity="1"></stop><stop offset="80%" stop-color="#001220" stop-opacity="1"></stop></linearGradient></defs><defs><linearGradient id="grad2_0" x1="0%" y1="0%" x2="66.7%" y2="100%"><stop offset="20%" stop-color="#001220" stop-opacity="1"></stop><stop offset="80%" stop-color="#001220" stop-opacity="1"></stop></linearGradient></defs><g transform="translate(900, 0)"><path d="M0 351.5C-51.2 351.7 -102.5 351.8 -134.5 324.8C-166.6 297.7 -179.5 243.5 -209.3 209.3C-239.1 175.1 -285.8 160.9 -312.3 129.3C-338.8 97.8 -345.2 48.9 -351.5 0L0 0Z" fill="#FBAE3C"></path></g><g transform="translate(0, 600)"><path d="M0 -351.5C52.5 -354.8 105.1 -358 134.5 -324.8C164 -291.6 170.4 -221.9 178.9 -178.9C187.4 -135.9 198.1 -119.5 227.3 -94.1C256.4 -68.8 304 -34.4 351.5 0L0 0Z" fill="#FBAE3C"></path></g></svg>